<svg width="24" height="14" viewBox="0 0 24 14" fill="none" xmlns="http://www.w3.org/2000/svg">
<path d="M0.0520001 13V0.399999H4.768C5.836 0.399999 6.754 0.573999 7.522 0.922C8.29 1.258 8.878 1.75 9.286 2.398C9.706 3.034 9.916 3.808 9.916 4.72C9.916 5.608 9.706 6.376 9.286 7.024C8.878 7.66 8.29 8.152 7.522 8.5C6.754 8.836 5.836 9.004 4.768 9.004H0.79L1.384 8.392V13H0.0520001ZM8.656 13L5.416 8.428H6.856L10.114 13H8.656ZM1.384 8.5L0.79 7.87H4.732C5.992 7.87 6.946 7.594 7.594 7.042C8.254 6.49 8.584 5.716 8.584 4.72C8.584 3.712 8.254 2.932 7.594 2.38C6.946 1.828 5.992 1.552 4.732 1.552H0.79L1.384 0.922V8.5ZM18.1358 13.108C16.5278 13.108 15.2618 12.646 14.3378 11.722C13.4138 10.798 12.9518 9.43 12.9518 7.618V0.399999H14.2838V7.564C14.2838 9.052 14.6198 10.15 15.2918 10.858C15.9638 11.566 16.9118 11.92 18.1358 11.92C19.3718 11.92 20.3258 11.566 20.9978 10.858C21.6698 10.15 22.0058 9.052 22.0058 7.564V0.399999H23.3018V7.618C23.3018 9.43 22.8398 10.798 21.9158 11.722C21.0038 12.646 19.7438 13.108 18.1358 13.108Z" fill="#323232"/>
</svg>
